<?xml version="1.0" encoding="UTF-8"?>
<svg width="82px" height="88px" viewBox="0 0 82 88" version="1.1" xmlns="http://www.w3.org/2000/svg" xmlns:xlink="http://www.w3.org/1999/xlink">
    <title>Combined Shape</title>
    <g id="Page-1" stroke="none" stroke-width="1" fill="none" fill-rule="evenodd">
        <g id="Combined-Shape" fill="#000000">
            <path d="M79,83.8569933 L42.9789176,45.6109096 L42.4607671,45.1533775 C40.3031771,43.4757392 37.1834091,43.6282499 35.2007699,45.6109096 L34.7432377,46.1290603 C33.0655184,48.2866605 33.2180291,51.4064288 35.2007699,53.3890987 L64.3079771,82.4999639 L81.5,87.8569933 L79,83.8569933 Z" id="Path" transform="translate(57.544900, 65.928497) scale(1, -1) translate(-57.544900, -65.928497) "></path>
            <path d="M71.7340426,38.4999639 L6.16021468,38.4999639 L5.50011579,38.5370255 C2.68506628,38.8547392 0.5,41.1793601 0.5,43.9999961 C0.5,47.0375183 3.03415482,49.5000284 6.16021468,49.5000284 L71.7340426,49.5000284 L81.5,45.5" id="Path"></path>
            <path d="M80,41.5 L43.8890739,1.61090965 L43.3709233,1.15337747 C41.2133334,-0.524260796 38.0935653,-0.371750072 36.1109261,1.61090965 L35.653394,2.12906026 C33.9756746,4.28666054 34.1281853,7.40642885 36.1109261,9.38909872 L65.2181334,38.4999639 L81.5,44 L80,41.5 Z" id="Path"></path>
        </g>
    </g>
</svg>